<?xml version="1.0" encoding="utf-8"?>
<svg xmlns="http://www.w3.org/2000/svg" viewBox="90 300 797 405" width="964.176pt" height="859.473pt">
  <g transform="matrix(0.10000000149011612, 0, 0, -0.10000000149011612, 0, 1024)" fill="#000000" stroke="none">
    <path d="M5088 7469 c-17 -9 -18 -129 -18 -2284 0 -2238 0 -2274 19 -2285 29 -15 56 -12 74 8 16 17 17 190 17 2279 0 2177 -1 2261 -18 2276 -21 19 -49 21 -74 6z"/>
    <path fill="#25A9E0" d="M2695 7213 c-179 -8 -403 -55 -567 -118 -618 -239 -1056 -756 -1194 -1407 -32 -152 -44 -457 -25 -615 79 -637 465 -1189 1031 -1473 293 -147 584 -209 924 -197 529 19 1005 255 1354 672 233 279 389 633 432 985 15 124 12 383 -5 509 -111 795 -733 1462 -1499 1610 -94 19 -337 44 -375 39 -9 -1 -43 -3 -76 -5z m14 -1062 c27 -27 34 -71 29 -191 -4 -144 3 -140 -239 -140 l-189 0 0 -688 0 -689 -25 -23 c-25 -23 -60 -26 -282 -20 -7 0 -22 9 -33 20 -20 20 -20 33 -20 710 l0 690 -197 0 c-255 0 -243 -9 -243 174 0 119 2 132 22 153 l21 23 569 0 c549 0 569 -1 587 -19z m1136 -6 c24 -23 25 -29 25 -153 0 -152 5 -140 -161 -347 -112 -139 -153 -195 -148 -199 2 -1 30 -7 61 -13 118 -24 234 -107 295 -210 57 -97 78 -259 53 -394 -25 -130 -124 -273 -244 -351 -237 -153 -596 -121 -787 71 -63 64 -129 172 -129 212 0 41 147 130 217 132 30 1 42 -8 97 -65 83 -87 129 -110 232 -116 96 -5 141 7 191 51 52 46 73 98 73 185 0 106 -35 168 -123 214 -39 21 -54 23 -184 21 l-142 -2 -22 27 c-18 24 -20 37 -17 117 l3 91 120 139 c66 77 142 168 168 203 l48 62 -250 0 -250 0 -20 26 c-19 24 -21 40 -21 149 0 109 2 125 21 149 l20 26 425 0 425 0 24 -25z"/>
    <path d="M6780 6963 c-24 -9 -51 -36 -67 -66 -8 -15 -34 -130 -58 -255 -24 -125 -47 -241 -50 -258 l-7 -31 -61 19 c-135 43 -270 -5 -413 -147 -166 -164 -254 -347 -254 -526 0 -179 120 -300 284 -287 141 12 269 113 381 303 7 12 10 -15 10 -92 0 -116 12 -156 57 -187 34 -24 91 -20 126 9 l29 24 6 258 c7 303 23 433 102 848 32 166 53 302 49 317 -11 54 -81 91 -134 71z m-254 -798 c8 -20 -11 -93 -47 -183 -102 -257 -293 -431 -368 -336 -41 52 -20 173 51 292 46 78 153 183 217 215 63 31 138 37 147 12z"/>
    <path d="M7310 6402 c-81 -27 -112 -46 -179 -108 -221 -205 -290 -601 -136 -782 85 -98 256 -138 402 -94 111 34 226 112 259 174 35 68 -1 138 -72 138 -28 0 -51 -10 -91 -41 -160 -120 -301 -124 -347 -9 -28 71 -26 73 82 103 254 72 404 206 419 374 10 108 -33 190 -121 235 -56 29 -147 33 -216 10z m131 -183 c42 -42 3 -128 -87 -189 -49 -34 -133 -74 -176 -84 -39 -9 -37 14 12 112 71 142 193 219 251 161z"/>
    <path d="M8436 6398 c-15 -14 -77 -135 -151 -298 -144 -312 -194 -410 -211 -410 -6 0 -14 15 -17 33 -3 17 -27 156 -52 307 -32 194 -51 282 -64 300 -43 59 -120 63 -165 9 -35 -42 -34 -89 10 -349 57 -344 107 -512 168 -569 16 -15 42 -25 70 -28 38 -5 53 -1 85 20 81 54 176 199 325 497 110 221 166 361 166 417 0 79 -105 124 -164 71z"/>
    <path d="M6055 5201 c-65 -28 -77 -66 -154 -496 -96 -533 -119 -813 -76 -900 39 -77 124 -107 191 -66 54 33 68 118 27 163 -14 15 -15 36 -10 130 12 200 56 509 127 883 16 88 30 175 30 192 0 63 -80 118 -135 94z"/>
    <path d="M7436 5138 c-31 -31 -35 -44 -70 -227 -21 -107 -55 -328 -76 -490 -21 -163 -46 -350 -55 -416 -19 -132 -14 -179 27 -230 48 -61 152 -71 314 -30 275 70 451 226 519 459 13 43 16 83 13 150 -5 108 -25 154 -92 213 -71 63 -154 78 -266 48 -72 -19 -173 -69 -218 -109 -20 -17 -33 -24 -30 -16 17 44 101 588 95 612 -19 73 -105 92 -161 36z m443 -746 c20 -23 23 -33 18 -81 -14 -129 -130 -280 -267 -345 -77 -37 -144 -52 -179 -41 -28 8 -28 60 -1 146 49 161 178 303 313 344 53 17 86 10 116 -23z"/>
    <path d="M6673 4725 c-141 -70 -304 -256 -404 -458 -108 -219 -103 -387 14 -481 37 -29 44 -31 125 -31 76 0 94 4 142 29 72 37 214 181 264 269 21 37 40 66 42 64 2 -2 -1 -21 -7 -42 -6 -22 -9 -84 -7 -140 3 -82 7 -107 25 -136 38 -60 101 -76 160 -39 48 29 52 58 24 180 -13 56 1 272 29 451 33 211 29 229 -57 273 -18 9 -33 21 -33 27 0 5 -28 23 -62 39 -91 43 -162 42 -255 -5z m182 -175 c10 -17 -23 -131 -65 -218 -76 -160 -219 -332 -305 -368 -34 -14 -39 -14 -62 1 -23 16 -25 22 -21 80 7 112 104 273 240 401 89 83 194 134 213 104z"/>
    <path d="M8479 4747 c-107 -30 -198 -111 -224 -201 -20 -66 -19 -106 4 -165 26 -70 64 -115 156 -184 149 -112 185 -159 170 -227 -9 -41 -40 -60 -100 -60 -76 0 -115 15 -180 70 -50 42 -65 50 -100 50 -69 0 -105 -50 -90 -126 9 -53 94 -134 170 -165 51 -20 77 -24 180 -24 105 0 126 3 173 24 172 78 216 312 84 455 -15 15 -70 61 -124 102 -134 102 -168 156 -133 210 39 60 138 68 234 20 97 -50 171 -22 171 64 0 52 -49 108 -123 141 -63 27 -198 36 -268 16z"/>
  </g>
</svg>